<?xml version="1.0" encoding="UTF-8" standalone="no"?>
<!DOCTYPE svg PUBLIC "-//W3C//DTD SVG 1.1//EN" "http://www.w3.org/Graphics/SVG/1.1/DTD/svg11.dtd">
<svg width="100%" height="100%" viewBox="0 0 60 60" version="1.1" xmlns="http://www.w3.org/2000/svg" xmlns:xlink="http://www.w3.org/1999/xlink" xml:space="preserve" xmlns:serif="http://www.serif.com/" style="fill-rule:evenodd;clip-rule:evenodd;stroke-linejoin:round;stroke-miterlimit:1.41421;">
    <g transform="matrix(1,0,0,1,43.586,34)">
        <path d="M0,-8L-24.586,-8L-24.586,-16L0,-16L4,-12L0,-8ZM-14.586,-6L-12.586,-6L-12.586,-4L-14.586,-4L-14.586,-6ZM-2.586,-2L-2.586,6L-27.172,6L-31.172,2L-27.172,-2L-2.586,-2ZM-14.586,-23C-14.586,-23.552 -14.139,-24 -13.586,-24C-13.033,-24 -12.586,-23.552 -12.586,-23L-12.586,-18L-14.586,-18L-14.586,-23ZM6.121,-12.707L1.121,-17.707C0.94,-17.888 0.69,-18 0.414,-18L-10.586,-18L-10.586,-23C-10.586,-24.656 -11.929,-26 -13.586,-26C-15.243,-26 -16.586,-24.656 -16.586,-23L-16.586,-18L-24.586,-18C-25.69,-18 -26.586,-17.104 -26.586,-16L-26.586,-8C-26.586,-6.896 -25.69,-6 -24.586,-6L-16.586,-6L-16.586,-4L-27.586,-4C-27.862,-4 -28.112,-3.888 -28.293,-3.706L-33.293,1.293C-33.474,1.475 -33.586,1.725 -33.586,2C-33.586,2.276 -33.474,2.526 -33.293,2.707L-28.293,7.707C-28.112,7.888 -27.862,8 -27.586,8L-16.586,8L-16.586,18L-14.586,18L-14.586,8L-12.586,8L-12.586,18L-10.586,18L-10.586,8L-2.586,8C-1.481,8 -0.586,7.105 -0.586,6L-0.586,-2C-0.586,-3.104 -1.481,-4 -2.586,-4L-10.586,-4L-10.586,-6L0.414,-6C0.69,-6 0.94,-6.111 1.121,-6.293L6.121,-11.293C6.302,-11.474 6.414,-11.724 6.414,-12C6.414,-12.275 6.302,-12.525 6.121,-12.707" style="fill-rule:nonzero;"/>
    </g>
</svg>
