<?xml version="1.0" encoding="UTF-8" standalone="no"?>
<!DOCTYPE svg PUBLIC "-//W3C//DTD SVG 1.1//EN" "http://www.w3.org/Graphics/SVG/1.1/DTD/svg11.dtd">
<svg width="100%" height="100%" viewBox="0 0 60 60" version="1.1" xmlns="http://www.w3.org/2000/svg" xmlns:xlink="http://www.w3.org/1999/xlink" xml:space="preserve" xmlns:serif="http://www.serif.com/" style="fill-rule:evenodd;clip-rule:evenodd;stroke-linejoin:round;stroke-miterlimit:1.41421;">
    <g transform="matrix(1,0,0,1,30,43.896)">
        <path d="M0,-27.792L18.684,-18.896L0,-9.998L-18.684,-18.896L0,-27.792ZM-21.501,-18.05L-21.51,-18.035L-21.408,-17.987C-21.397,-17.981 -21.387,-17.976 -21.375,-17.971L-0.51,-8.035L-0.501,-8.05C-0.352,-7.96 -0.187,-7.896 0,-7.896C0.187,-7.896 0.352,-7.96 0.501,-8.05L0.51,-8.035L21.375,-17.971C21.387,-17.976 21.397,-17.981 21.408,-17.987L21.51,-18.035L21.501,-18.05C21.794,-18.224 22,-18.53 22,-18.896C22,-19.261 21.794,-19.566 21.501,-19.741L21.51,-19.756L21.408,-19.804C21.397,-19.81 21.387,-19.814 21.376,-19.819L0.51,-29.756L0.501,-29.741C0.352,-29.83 0.187,-29.896 0,-29.896C-0.187,-29.896 -0.352,-29.83 -0.501,-29.741L-0.51,-29.756L-21.376,-19.819C-21.387,-19.814 -21.396,-19.81 -21.408,-19.804L-21.51,-19.756L-21.501,-19.741C-21.794,-19.566 -22,-19.261 -22,-18.896C-22,-18.53 -21.794,-18.224 -21.501,-18.05M21,-14.896C20.813,-14.896 20.648,-14.83 20.499,-14.741L20.49,-14.756L0,-4.998L-20.49,-14.756L-20.499,-14.741C-20.648,-14.83 -20.813,-14.896 -21,-14.896C-21.553,-14.896 -22,-14.448 -22,-13.896C-22,-13.529 -21.794,-13.224 -21.501,-13.05L-21.51,-13.035L-21.408,-12.986C-21.396,-12.981 -21.387,-12.976 -21.376,-12.972L-0.51,-3.035L-0.501,-3.05C-0.352,-2.96 -0.187,-2.896 0,-2.896C0.187,-2.896 0.352,-2.96 0.501,-3.05L0.51,-3.035L21.376,-12.972C21.387,-12.976 21.396,-12.981 21.408,-12.986L21.51,-13.035L21.501,-13.05C21.794,-13.224 22,-13.529 22,-13.896C22,-14.448 21.553,-14.896 21,-14.896M21,-9.896C20.813,-9.896 20.648,-9.83 20.499,-9.741L20.49,-9.756L0,0.002L-20.49,-9.756L-20.499,-9.741C-20.648,-9.83 -20.813,-9.896 -21,-9.896C-21.553,-9.896 -22,-9.447 -22,-8.896C-22,-8.53 -21.794,-8.224 -21.501,-8.05L-21.51,-8.035L-21.409,-7.987C-21.397,-7.981 -21.387,-7.976 -21.375,-7.971L-0.51,1.965L-0.501,1.95C-0.352,2.04 -0.187,2.104 0,2.104C0.187,2.104 0.352,2.04 0.501,1.95L0.51,1.965L21.375,-7.971C21.387,-7.976 21.397,-7.981 21.409,-7.987L21.51,-8.035L21.501,-8.05C21.794,-8.224 22,-8.53 22,-8.896C22,-9.447 21.553,-9.896 21,-9.896" style="fill-rule:nonzero;"/>
    </g>
</svg>
