<?xml version="1.0" encoding="UTF-8" standalone="no"?>
<!DOCTYPE svg PUBLIC "-//W3C//DTD SVG 1.1//EN" "http://www.w3.org/Graphics/SVG/1.1/DTD/svg11.dtd">
<svg width="100%" height="100%" viewBox="0 0 60 60" version="1.1" xmlns="http://www.w3.org/2000/svg" xmlns:xlink="http://www.w3.org/1999/xlink" xml:space="preserve" xmlns:serif="http://www.serif.com/" style="fill-rule:evenodd;clip-rule:evenodd;stroke-linejoin:round;stroke-miterlimit:1.41421;">
    <g transform="matrix(1,0,0,1,50,33)">
        <path d="M0,-6C0,-5.724 -0.112,-5.474 -0.293,-5.293L-22.293,16.707C-22.474,16.888 -22.724,17 -23,17C-23.276,17 -23.526,16.889 -23.707,16.707L-39.707,0.707C-39.888,0.526 -40,0.276 -40,0C-40,-0.276 -39.888,-0.526 -39.707,-0.707L-17.707,-22.707C-17.526,-22.888 -17.276,-23 -17,-23L-1,-23C-0.447,-23 0,-22.552 0,-22L0,-6ZM-1,-25L-17,-25C-17.828,-25 -18.578,-24.664 -19.121,-24.121L-41.121,-2.121C-41.664,-1.578 -42,-0.828 -42,0C-42,0.828 -41.664,1.578 -41.121,2.121L-25.121,18.121C-24.578,18.664 -23.828,19 -23,19C-22.172,19 -21.422,18.664 -20.879,18.121L1.121,-3.879C1.664,-4.422 2,-5.172 2,-6L2,-22C2,-23.656 0.657,-25 -1,-25M-6.992,-14.005C-8.095,-14.005 -8.989,-14.899 -8.989,-16.002C-8.989,-17.104 -8.095,-17.999 -6.992,-17.999C-5.889,-17.999 -4.995,-17.104 -4.995,-16.002C-4.995,-14.899 -5.889,-14.005 -6.992,-14.005M-6.99,-20.007C-9.202,-20.007 -10.995,-18.214 -10.995,-16.002C-10.995,-13.791 -9.202,-11.998 -6.99,-11.998C-4.779,-11.998 -2.986,-13.791 -2.986,-16.002C-2.986,-18.214 -4.779,-20.007 -6.99,-20.007" style="fill-rule:nonzero;"/>
    </g>
</svg>
